# xmcd
#
# Track frame offsets:
#	182
#	12382
#	25195
#	36007
#	49160
#	68557
#	79162
#	91632
#	102437
#	112002
#
# Disc length: 1674 seconds
#
# Revision: 2
# Processed by: cddbd v1.5.1PL0 Copyright (c) Steve Scherf et al.
# Submitted via: dBpowerAMP V4.0
#
DISCID=7406880a
DTITLE=Gene Watson - The Best Of Gene Watson
DYEAR=1996
DGENRE=Country
TTITLE0=Got No Reason Now For Goin' Home
TTITLE1=One Hell Of A Heartache
TTITLE2=Texas Saturday Night
TTITLE3=I Guess You Had To Be There
TTITLE4=You Waltzed Yourself Right Into My Life
TTITLE5=My Memories Of You
TTITLE6=If I Were You I'd Fall In Love With Me
TTITLE7=Sailing Home To Me
TTITLE8=A Memory Away
TTITLE9=Independence Day
EXTD=
EXTT0=
EXTT1=
EXTT2=
EXTT3=
EXTT4=
EXTT5=
EXTT6=
EXTT7=
EXTT8=
EXTT9=
PLAYORDER=
